<svg xmlns="http://www.w3.org/2000/svg" xml:space="preserve" width="192" height="192" data-version="2">
    <path fill="#001f3f" d="M57.42 143.98 23.08 36.18h17.71l20.79 67.45q1.23 3.39 2.16 8.01.92 4.62 1.77 8.85.85 4.24 1.31 6.7l-4.47-.15q2.31-8.16 3.62-12.63 1.31-4.46 2.08-6.85.77-2.39 1.39-4.08l19.4-48.67h14.94l18.79 48.67q1.54 3.69 2.69 7.31 1.16 3.62 2.08 7.24.92 3.62 2 7.62l-4 1.08q.77-4.16 1.15-6.54.39-2.39.7-3.93.3-1.54.61-3 .31-1.47 1-3.78.7-2.31 1.93-6.31l20.48-66.99h17.86l-34.34 107.8h-11.55L94.69 76.53l1.39.61-27.41 66.84Z" paint-order="stroke"/>
    <rect width="145.99" height="107.8" x="-72.995" y="-53.9" fill="none" rx="0" ry="0" transform="translate(96.575 90.58)"/>
</svg>
